<?xml version="1.0" standalone="no"?>
<!DOCTYPE svg PUBLIC "-//W3C//DTD SVG 20010904//EN"
 "http://www.w3.org/TR/2001/REC-SVG-20010904/DTD/svg10.dtd">
<svg version="1.0" xmlns="http://www.w3.org/2000/svg"
 width="1080.000000pt" height="1080.000000pt" viewBox="0 0 1080.000000 1080.000000"
 preserveAspectRatio="xMidYMid meet">
<metadata>
Created by potrace 1.14, written by Peter Selinger 2001-2017
</metadata>
<g transform="translate(0.000000,1080.000000) scale(0.100000,-0.100000)"
fill="#000000" stroke="none">
<path d="M3250 9380 c-83 -21 -136 -57 -177 -117 -18 -27 -63 -135 -103 -248
-58 -162 -269 -755 -362 -1015 -11 -30 -68 -192 -128 -360 -59 -168 -117 -330
-128 -360 -11 -30 -45 -127 -76 -215 -31 -88 -70 -198 -87 -245 -17 -47 -42
-115 -55 -152 -13 -38 -35 -98 -48 -135 -121 -338 -334 -935 -391 -1098 -29
-82 -110 -310 -180 -505 -70 -195 -151 -422 -180 -505 -52 -148 -128 -361
-630 -1770 -141 -396 -272 -765 -292 -820 -19 -55 -38 -109 -42 -120 -5 -11
-13 -32 -20 -48 -6 -15 -20 -63 -31 -107 -19 -76 -20 -84 -5 -148 29 -123 98
-194 221 -226 90 -23 1016 -24 1126 -1 127 27 190 90 245 243 19 54 74 207
123 342 48 135 145 405 215 600 70 195 156 436 192 535 35 99 71 200 80 225 8
25 19 54 23 65 5 11 28 74 52 140 l43 120 1314 0 1314 0 97 -260 c116 -313
224 -606 360 -975 127 -346 170 -460 180 -485 5 -11 39 -103 76 -205 37 -102
78 -201 92 -220 29 -40 68 -80 78 -80 4 0 15 -6 23 -14 9 -8 43 -21 76 -30 52
-13 147 -15 680 -13 341 2 636 6 655 11 61 13 119 46 156 89 40 46 48 62 95
187 17 47 36 94 40 105 5 11 19 49 32 85 13 36 39 103 57 150 18 47 45 119 60
160 25 69 124 332 543 1445 85 226 223 592 306 815 84 223 162 428 173 455 12
28 27 68 34 90 7 22 28 81 47 130 19 50 213 565 432 1145 218 580 501 1330
627 1665 126 336 242 644 258 685 31 84 87 235 132 355 17 44 34 89 39 100 42
95 77 244 67 280 -4 17 -11 44 -14 60 -8 48 -59 117 -111 152 -88 58 -137 62
-698 61 -288 0 -519 -4 -545 -10 -25 -5 -56 -12 -69 -14 -44 -9 -113 -66 -152
-127 -21 -33 -39 -65 -39 -72 0 -10 -100 -287 -255 -710 -24 -66 -80 -220
-124 -341 -44 -122 -87 -239 -95 -260 -15 -40 -108 -295 -176 -484 -21 -58
-73 -199 -115 -315 -72 -196 -134 -368 -185 -510 -31 -87 -61 -167 -70 -190
-5 -11 -52 -141 -106 -290 -53 -148 -100 -279 -104 -290 -4 -11 -8 -23 -9 -27
-1 -4 -9 -25 -18 -45 -8 -21 -33 -87 -55 -148 -22 -60 -56 -157 -77 -215 -21
-58 -64 -177 -95 -265 -58 -162 -71 -198 -99 -270 -9 -22 -41 -112 -72 -200
-31 -88 -61 -169 -65 -180 -5 -11 -26 -67 -46 -125 -39 -113 -45 -129 -124
-350 -28 -80 -60 -170 -70 -200 -43 -127 -89 -257 -100 -285 -12 -29 -14 -24
-76 145 -36 96 -68 184 -73 195 -5 11 -50 133 -101 270 -50 138 -98 266 -105
285 -8 19 -67 177 -130 350 -64 173 -120 324 -125 335 -16 36 -117 315 -215
595 -53 151 -100 284 -105 295 -4 11 -43 119 -85 240 -42 121 -92 263 -110
315 -92 258 -195 550 -208 590 -8 25 -22 63 -30 85 -9 22 -31 85 -51 140 -19
55 -60 172 -91 260 -31 88 -86 243 -121 345 -36 102 -74 208 -84 235 -10 28
-67 187 -125 355 -59 168 -113 321 -120 340 -8 19 -41 112 -74 207 -33 94 -73
189 -88 211 -34 47 -105 97 -153 108 -19 4 -42 10 -50 12 -8 3 -316 6 -685 7
-597 2 -677 0 -735 -15z m673 -2190 c17 -50 329 -912 353 -974 8 -22 87 -238
175 -480 88 -243 176 -482 195 -532 18 -51 49 -134 67 -186 l33 -93 -818 0
c-450 0 -818 3 -818 6 0 3 45 138 101 300 55 162 113 332 129 379 16 47 88
258 160 470 72 212 191 561 263 777 73 216 135 389 138 385 4 -4 14 -27 22
-52z"/>
</g>
</svg>
